HIERARCHY
ROOT Hips
{
	OFFSET 0.00 0.00 0.00
	CHANNELS 6 Xposition Yposition Zposition Xrotation Yrotation Zrotation
	JOINT Spine
	{
		OFFSET 0.00000 1.72418 2.58627
		CHANNELS 3 Xrotation Yrotation Zrotation
		JOINT Spine1
		{
			OFFSET 0.00000 0.59880 3.39597
			CHANNELS 3 Xrotation Yrotation Zrotation
			JOINT Spine2
			{
				OFFSET 0.00000 0.30055 3.43524
				CHANNELS 3 Xrotation Yrotation Zrotation
				JOINT Spine3
				{
					OFFSET 0.00000 0.00000 3.44836
					CHANNELS 3 Xrotation Yrotation Zrotation
					JOINT Neck
					{
						OFFSET 0.00000 -1.29313 9.05195
						CHANNELS 3 Xrotation Yrotation Zrotation
						JOINT Head
						{
							OFFSET 0.00000 -0.82335 4.66946
							CHANNELS 3 Xrotation Yrotation Zrotation
							End Site
							{
								OFFSET 0.00000 0.00001 5.58203
							}
						}
					}
					JOINT RightShoulder
					{
						OFFSET -1.18828 -1.98046 6.41673
						CHANNELS 3 Xrotation Yrotation Zrotation
						JOINT RightArm
						{
							OFFSET -5.90180 0.00000 0.00000
							CHANNELS 3 Xrotation Yrotation Zrotation
							JOINT RightForeArm
							{
								OFFSET -11.45951 0.00000 0.00000
								CHANNELS 3 Xrotation Yrotation Zrotation
								JOINT RightHand
								{
									OFFSET -10.63451 0.00000 0.00000
									CHANNELS 3 Xrotation Yrotation Zrotation
									JOINT RightHandEnd
									{
										OFFSET -2.86944 0.00000 0.00000
										CHANNELS 3 Xrotation Yrotation Zrotation
										End Site
										{
											OFFSET -2.86944 0.00000 0.00000
										}
									}
									JOINT RightHandThumb1
									{
										OFFSET -1.14778 -1.91296 -0.76518
										CHANNELS 3 Yrotation Xrotation Zrotation
										End Site
										{
											OFFSET -2.77167 -0.74267 0.00000
										}
									}
								}
							}
						}
					}
					JOINT LeftShoulder
					{
						OFFSET 1.18828 -1.98046 6.41673
						CHANNELS 3 Xrotation Yrotation Zrotation
						JOINT LeftArm
						{
							OFFSET 5.90180 0.00000 0.00000
							CHANNELS 3 Xrotation Yrotation Zrotation
							JOINT LeftForeArm
							{
								OFFSET 11.45951 0.00000 0.00000
								CHANNELS 3 Xrotation Yrotation Zrotation
								JOINT LeftHand
								{
									OFFSET 10.63451 0.00000 0.00000
									CHANNELS 3 Xrotation Yrotation Zrotation
									JOINT LeftHandEnd
									{
										OFFSET 2.86944 0.00000 0.00000
										CHANNELS 3 Xrotation Yrotation Zrotation
										End Site
										{
											OFFSET 2.86944 0.00000 0.00000
										}
									}
									JOINT LeftHandThumb1
									{
										OFFSET 1.14778 -1.91296 -0.76518
										CHANNELS 3 Yrotation Xrotation Zrotation
										End Site
										{
											OFFSET 2.77167 -0.74267 0.00000
										}
									}
								}
							}
						}
					}
				}
			}
		}
	}
	JOINT RightUpLeg
	{
		OFFSET -3.52524 0.00000 -1.02984
		CHANNELS 3 Xrotation Yrotation Zrotation
		JOINT RightLeg
		{
			OFFSET 0.00001 0.00000 -17.80965
			CHANNELS 3 Xrotation Yrotation Zrotation
			JOINT RightFoot
			{
				OFFSET 0.00001 0.00000 -17.00908
				CHANNELS 3 Xrotation Yrotation Zrotation
				JOINT RightToeBase
				{
					OFFSET 0.00000 -5.55853 -2.02314
					CHANNELS 3 Xrotation Yrotation Zrotation
					End Site
					{
						OFFSET 0.00000 -2.85188 -0.00000
					}
				}
			}
		}
	}
	JOINT LeftUpLeg
	{
		OFFSET 3.52524 0.00000 -1.02984
		CHANNELS 3 Xrotation Yrotation Zrotation
		JOINT LeftLeg
		{
			OFFSET 0.00001 0.00000 -17.80965
			CHANNELS 3 Xrotation Yrotation Zrotation
			JOINT LeftFoot
			{
				OFFSET 0.00001 0.00000 -17.00908
				CHANNELS 3 Xrotation Yrotation Zrotation
				JOINT LeftToeBase
				{
					OFFSET 0.00000 -5.55853 -2.02314
					CHANNELS 3 Xrotation Yrotation Zrotation
					End Site
					{
						OFFSET 0.00000 -2.85188 -0.00000
					}
				}
			}
		}
	}
}
MOTION
Frames: 9
Frame Time: 0.008342
 2.3953 -13.0544 34.9248 -3.4017 3.8482 172.9669 2.6376 -0.9414 1.5489 1.2061 -0.1316 0.2472 1.6083 2.2381 4.9949 0.0002 0.3797 0.5503 -1.7260 1.3689 1.4652 -0.3139 0.7376 1.0819 7.5812 8.2631 -0.7255 -15.0201 0.0230 -6.8635 0.0000 0.0000 28.2684 10.5225 29.9676 -5.5660 0.0000 -0.0000 0.0000 0.0000 -0.0000 0.0000 11.3769 -4.2774 1.0483 -32.6197 -0.7125 18.0059 -0.0000 -0.0000 -37.2679 9.9883 -20.1406 -5.2282 0.0000 -0.0000 -0.0000 -0.0000 0.0000 0.0000 5.9987 8.9149 -6.0584 52.1238 0.0000 0.0000 6.6768 -0.4754 -3.8214 -2.5249 0.0000 -0.0000 -36.6985 1.9063 10.4289 40.7908 0.0000 0.0000 -8.3429 -8.0777 7.2528 -0.2112 0.0000 -0.0000
 2.3796 -12.6869 35.0073 -3.3398 3.7266 173.2088 2.6745 -0.9823 1.5111 1.2072 -0.1243 0.2434 1.5467 2.2109 4.8519 0.0059 0.4012 0.5285 -1.6761 1.2184 1.3060 -0.0744 0.7435 1.0092 7.3406 7.8435 -0.7193 -17.6238 -0.5374 -7.5192 0.0000 0.0000 30.1609 12.3547 30.1181 -6.1469 0.0000 -0.0000 -0.0000 -0.0000 -0.0000 0.0000 11.4588 -4.1976 1.0209 -33.9934 -0.3350 18.6237 -0.0000 -0.0000 -38.6590 11.3834 -19.7751 -4.9041 -0.0000 -0.0000 -0.0000 -0.0000 0.0000 -0.0000 5.2091 8.7033 -5.9172 53.4735 0.0000 0.0000 6.4922 -0.6394 -5.0887 -0.3311 0.0000 -0.0000 -36.0166 2.1400 10.0471 40.8216 0.0000 0.0000 -8.8958 -8.3345 7.3750 -0.2419 0.0000 -0.0000
 2.3654 -12.3235 35.0880 -3.2654 3.5937 173.4686 2.7159 -1.0288 1.4747 1.2093 -0.1046 0.2418 1.4922 2.1618 4.7047 0.0149 0.4216 0.5109 -1.6603 1.0843 1.1572 0.1243 0.7415 0.9233 7.2700 7.4938 -0.7548 -20.2917 -1.2330 -8.3578 0.0000 0.0000 32.3400 14.2819 30.3753 -6.8346 0.0000 -0.0000 -0.0000 0.0000 0.0000 0.0000 11.6616 -4.1518 1.0366 -35.4161 0.1568 19.3211 -0.0000 -0.0000 -40.3581 12.7920 -19.4613 -4.5856 0.0000 -0.0000 -0.0000 -0.0000 0.0000 0.0000 4.4032 8.4687 -5.8284 54.7790 0.0000 0.0000 6.0371 -0.7264 -6.3358 1.1395 0.0000 0.0000 -35.3132 2.3818 9.6100 40.8277 0.0000 0.0000 -9.4808 -8.5869 7.5089 -0.1996 0.0000 -0.0000
 2.3520 -11.9637 35.1670 -3.1876 3.4570 173.7325 2.7509 -1.0722 1.4403 1.2097 -0.0919 0.2411 1.4507 2.1074 4.5690 0.0233 0.4382 0.4955 -1.6705 0.9733 1.0246 0.2745 0.7292 0.8212 7.3943 7.2060 -0.8567 -22.9556 -2.0471 -9.3637 0.0000 0.0000 34.8357 16.2583 30.6934 -7.5988 0.0000 -0.0000 -0.0000 -0.0000 -0.0000 -0.0000 11.9841 -4.1030 1.1117 -36.8688 0.7451 20.0639 -0.0000 -0.0000 -42.3890 14.1657 -19.1768 -4.2744 0.0000 -0.0000 -0.0000 -0.0000 0.0000 -0.0000 3.5685 8.2271 -5.7868 56.0345 0.0000 0.0000 5.3541 -0.6974 -7.5273 1.9402 0.0000 0.0000 -34.5960 2.6296 9.1320 40.8062 0.0000 0.0000 -10.0888 -8.8304 7.6579 -0.1081 0.0000 -0.0000
 2.3394 -11.6075 35.2449 -3.1102 3.3099 173.9923 2.7816 -1.1204 1.4062 1.2051 -0.0914 0.2343 1.4172 2.0512 4.4595 0.0328 0.4542 0.4792 -1.6977 0.8854 0.9133 0.3746 0.7068 0.7043 7.7068 6.9434 -1.0276 -25.5203 -2.9349 -10.5011 0.0000 0.0000 37.6374 18.2127 31.0160 -8.3921 -0.0000 0.0000 -0.0000 0.0000 -0.0000 0.0000 12.4232 -4.0020 1.2713 -38.3152 1.4068 20.7790 -0.0000 -0.0000 -44.7218 15.4441 -18.9068 -3.9730 -0.0000 -0.0000 0.0000 0.0000 -0.0000 0.0000 2.7042 7.9740 -5.7835 57.2272 0.0000 0.0000 4.4979 -0.5363 -8.6415 2.1496 0.0000 0.0000 -33.8665 2.8703 8.6212 40.7553 0.0000 0.0000 -10.7060 -9.0636 7.8202 0.0048 0.0000 0.0000
 2.3270 -11.2545 35.3219 -3.0453 3.1625 174.2394 2.7907 -1.1666 1.3704 1.1972 -0.0989 0.2323 1.3936 1.9902 4.3666 0.0419 0.4646 0.4709 -1.7304 0.8322 0.8259 0.4286 0.6697 0.5713 8.1835 6.6753 -1.2700 -27.9003 -3.8592 -11.7133 -0.0000 0.0000 40.7001 20.0814 31.2960 -9.1665 -0.0000 0.0000 0.0000 0.0000 -0.0000 0.0000 12.9590 -3.7952 1.5075 -39.6937 2.1049 21.4006 -0.0000 -0.0000 -47.2879 16.5717 -18.6494 -3.6872 0.0000 -0.0000 -0.0000 0.0000 -0.0000 -0.0000 1.7950 7.7236 -5.8095 58.3559 0.0000 0.0000 3.5192 -0.2455 -9.6583 1.8747 0.0000 0.0000 -33.1364 3.1047 8.0950 40.6703 0.0000 0.0000 -11.3104 -9.2843 7.9968 0.1107 0.0000 0.0000
 2.3143 -10.9044 35.3982 -2.9857 3.0276 174.4667 2.7855 -1.1997 1.3323 1.1818 -0.1248 0.2262 1.3803 1.9396 4.3045 0.0501 0.4742 0.4633 -1.7558 0.8028 0.7627 0.4454 0.6233 0.4292 8.7859 6.3788 -1.5588 -30.0470 -4.8041 -12.9649 -0.0000 0.0000 43.9635 21.8266 31.4956 -9.8790 0.0000 -0.0000 -0.0000 0.0000 -0.0000 0.0000 13.5603 -3.4731 1.8048 -40.9505 2.8214 21.8995 -0.0000 -0.0000 -50.0092 17.5184 -18.4029 -3.4194 0.0000 0.0000 -0.0000 0.0000 -0.0000 0.0000 0.8472 7.4933 -5.8554 59.4190 0.0000 0.0000 2.4657 0.1536 -10.5653 1.2465 0.0000 0.0000 -32.3957 3.3387 7.5734 40.5425 0.0000 0.0000 -11.8795 -9.4928 8.1868 0.1876 0.0000 0.0000
 2.3021 -10.5578 35.4737 -2.9461 2.8986 174.6745 2.7507 -1.2356 1.2908 1.1614 -0.1451 0.2217 1.3740 1.8830 4.2675 0.0604 0.4805 0.4559 -1.7703 0.8017 0.7227 0.4386 0.5665 0.2805 9.4674 6.0355 -1.8917 -31.9328 -5.7629 -14.1931 -0.0000 0.0000 47.3517 23.4244 31.6062 -10.5037 0.0000 -0.0000 0.0000 -0.0000 -0.0000 0.0000 14.2055 -3.0251 2.1543 -42.0606 3.5546 22.2388 -0.0000 -0.0000 -52.7978 18.2887 -18.1890 -3.1677 -0.0000 -0.0000 0.0000 -0.0000 -0.0000 -0.0000 -0.1538 7.2719 -5.9114 60.4152 0.0000 0.0000 1.3801 0.6262 -11.3654 0.4104 0.0000 0.0000 -31.6641 3.5588 7.0641 40.3788 0.0000 0.0000 -12.3988 -9.6883 8.3832 0.2200 0.0000 0.0000
 2.2903 -10.2145 35.5485 -2.9185 2.7812 174.8632 2.6926 -1.2618 1.2459 1.1350 -0.1818 0.2171 1.3771 1.8438 4.2497 0.0705 0.4827 0.4520 -1.7640 0.8181 0.6983 0.4211 0.5050 0.1337 10.1741 5.6354 -2.2412 -33.5460 -6.7331 -15.3790 -0.0000 0.0001 50.7996 24.8717 31.6327 -11.0295 0.0000 -0.0000 -0.0000 -0.0000 -0.0000 0.0000 14.8498 -2.4786 2.5128 -42.9817 4.2935 22.4514 -0.0000 -0.0000 -55.5909 18.8989 -18.0198 -2.9315 -0.0000 0.0000 0.0000 0.0000 -0.0000 -0.0000 -1.1985 7.0649 -5.9719 61.3440 0.0000 0.0000 0.2942 1.1320 -12.0632 -0.4915 0.0000 -0.0000 -30.9339 3.7662 6.5809 40.1780 0.0000 0.0000 -12.8577 -9.8702 8.5794 0.2025 0.0000 0.0000
